<svg width="67" height="67" viewBox="0 0 67 67" fill="none" xmlns="http://www.w3.org/2000/svg">
<path d="M33.5003 30.8479L48.6451 20.0302C49.5757 19.3788 50.5407 19.2978 51.5401 19.7873C52.5395 20.2768 53.0401 21.1022 53.042 22.2635C53.042 22.7288 52.9368 23.1708 52.7265 23.5895C52.5162 24.0083 52.2259 24.334 51.8555 24.5666L33.5003 37.6875L15.1451 24.5666C14.7729 24.334 14.4816 24.0083 14.2713 23.5895C14.061 23.1708 13.9568 22.7288 13.9587 22.2635C13.9587 21.1468 14.4584 20.3326 15.4578 19.8208C16.4572 19.309 17.4231 19.3788 18.3555 20.0302L33.5003 30.8479ZM33.5003 47.4583L48.6451 36.6406C49.5757 35.9892 50.5407 35.9073 51.5401 36.3949C52.5395 36.8825 53.0401 37.7098 53.042 38.8767C53.042 39.342 52.9368 39.784 52.7265 40.2028C52.5162 40.6215 52.2259 40.9472 51.8555 41.1798L33.5003 54.2979L15.1451 41.177C14.7729 40.9444 14.4816 40.6187 14.2713 40.2C14.061 39.7812 13.9568 39.3392 13.9587 38.8739C13.9587 37.7573 14.4584 36.943 15.4578 36.4312C16.4572 35.9194 17.4231 35.9892 18.3555 36.6406L33.5003 47.4583Z" fill="#DEDEDE"/>
</svg>
